<?xml version="1.0" encoding="UTF-8"?>
<svg version="1.1" xmlns="http://www.w3.org/2000/svg" width="500" height="500">
<path d="M0 0 C0.33 0.66 0.66 1.32 1 2 C2.2065625 2.1546875 2.2065625 2.1546875 3.4375 2.3125 C8.43439966 3.27681397 12.54057087 5.61164962 17 8 C17 8.66 17 9.32 17 10 C18.98 10.66 20.96 11.32 23 12 C23 12.66 23 13.32 23 14 C23.721875 14.2475 24.44375 14.495 25.1875 14.75 C31.58164186 17.59184083 35.57972939 22.77421311 40 28 C40.77150391 28.86431641 40.77150391 28.86431641 41.55859375 29.74609375 C45 33.65545326 45 33.65545326 45 37 C42.03 36.505 42.03 36.505 39 36 C39 35.34 39 34.68 39 34 C38.401875 33.855625 37.80375 33.71125 37.1875 33.5625 C35.43849596 33.1127561 33.71322977 32.57107659 32 32 C32 31.34 32 30.68 32 30 C31.21625 29.79375 30.4325 29.5875 29.625 29.375 C25.44549004 27.78966864 21.93795377 25.62737072 18.171875 23.2421875 C16.12765192 21.83450828 16.12765192 21.83450828 14 22 C14 21.34 14 20.68 14 20 C12.68 20 11.36 20 10 20 C10 19.34 10 18.68 10 18 C8.35 18 6.7 18 5 18 C5 17.34 5 16.68 5 16 C2.02934491 16.34227572 2.02934491 16.34227572 -1 17 C-1.33 17.66 -1.66 18.32 -2 19 C-4.3140622 19.73075648 -6.64828869 20.40138258 -9 21 C-9 21.66 -9 22.32 -9 23 C-10.32 23 -11.64 23 -13 23 C-13 23.66 -13 24.32 -13 25 C-13.95777344 25.47308594 -14.91554688 25.94617188 -15.90234375 26.43359375 C-24.17195803 30.53536438 -32.37469337 34.73848764 -40.50170898 39.11694336 C-43.31006119 40.62166871 -45.97086849 41.9902895 -49 43 C-49.495 43.99 -49.495 43.99 -50 45 C-51.77734375 46 -51.77734375 46 -53.9375 47 C-56.48615488 48.18413003 -57.98757159 48.98757159 -60 51 C-61.44098148 51.84289071 -62.90193333 52.65202757 -64.375 53.4375 C-67.47162745 55.08937986 -70.20044641 56.8907473 -73 59 C-74.50477197 59.9023416 -76.02615107 60.77753849 -77.5625 61.625 C-78.32691406 62.05039063 -79.09132812 62.47578125 -79.87890625 62.9140625 C-82 64 -82 64 -85 65 C-85 65.66 -85 66.32 -85 67 C-85.61488281 67.31453125 -86.22976562 67.6290625 -86.86328125 67.953125 C-87.67152344 68.38109375 -88.47976562 68.8090625 -89.3125 69.25 C-90.11300781 69.66765625 -90.91351563 70.0853125 -91.73828125 70.515625 C-94.13190204 72.08656783 -95.43301591 73.6267037 -97 76 C-96.40832031 75.91621094 -95.81664062 75.83242187 -95.20703125 75.74609375 C-86.49470499 74.62329803 -86.49470499 74.62329803 -83 76 C-80.16491657 79.80683076 -80.71213353 84.40156758 -80.7253418 88.92773438 C-80.72023087 89.82897537 -80.71511993 90.73021637 -80.70985413 91.6587677 C-80.69595644 94.63716272 -80.69691484 97.61532642 -80.69921875 100.59375 C-80.69533233 102.66353441 -80.69099777 104.73331801 -80.68623352 106.80310059 C-80.67877123 111.14073269 -80.67906297 115.47828339 -80.68432617 119.81591797 C-80.69012515 125.37795459 -80.67317939 130.93965869 -80.6499815 136.50164032 C-80.63526059 140.7755529 -80.63437015 145.04938505 -80.63749123 149.32331848 C-80.63697733 151.37425903 -80.63172684 153.425204 -80.62167931 155.47612 C-80.60936219 158.34172286 -80.61607787 161.20667344 -80.62768555 164.07226562 C-80.61621994 165.34569572 -80.61621994 165.34569572 -80.60452271 166.64485168 C-80.63606359 170.16228352 -80.66903522 172.39902777 -82.38801575 175.52038574 C-85.14283157 178.0489866 -87.70917079 177.65718141 -91.29296875 177.53125 C-95.99051483 176.60936505 -99.30884343 173.9136737 -103 171 C-103.99 170.34 -104.98 169.68 -106 169 C-106 168.34 -106 167.68 -106 167 C-106.66 167 -107.32 167 -108 167 C-108 166.34 -108 165.68 -108 165 C-108.66 165 -109.32 165 -110 165 C-112.125 163.125 -112.125 163.125 -114 161 C-114 160.34 -114 159.68 -114 159 C-114.66 159 -115.32 159 -116 159 C-116 158.34 -116 157.68 -116 157 C-116.66 157 -117.32 157 -118 157 C-120 154 -120 154 -120 151 C-120.66 151 -121.32 151 -122 151 C-124 148 -124 148 -124 145 C-124.66 145 -125.32 145 -126 145 C-140.40823223 117.24934997 -142.38288965 90.21853359 -134 60 C-133.34 60 -132.68 60 -132 60 C-132.04125 59.2575 -132.0825 58.515 -132.125 57.75 C-131.99456907 54.88051956 -131.53915977 53.39424853 -130 51 C-129.01 50.505 -129.01 50.505 -128 50 C-127.690625 48.88625 -127.38125 47.7725 -127.0625 46.625 C-126.00849122 43.02897004 -125.57315917 42.36730643 -123 40 C-122.525625 38.989375 -122.05125 37.97875 -121.5625 36.9375 C-119.94112325 33.88931172 -119.18426404 33.09802208 -116 32 C-116 31.34 -116 30.68 -116 30 C-115.34 30 -114.68 30 -114 30 C-113.896875 29.401875 -113.79375 28.80375 -113.6875 28.1875 C-112.90175967 25.68741714 -112.03081147 24.62464918 -110 23 C-109.34 23 -108.68 23 -108 23 C-108 22.34 -108 21.68 -108 21 C-107.34 21 -106.68 21 -106 21 C-105.67 20.34 -105.34 19.68 -105 19 C-103.74368474 17.75495214 -102.44617799 16.5509936 -101.125 15.375 C-100.42632812 14.74335938 -99.72765625 14.11171875 -99.0078125 13.4609375 C-97 12 -97 12 -94 12 C-94 11.34 -94 10.68 -94 10 C-93.34 10 -92.68 10 -92 10 C-91.67 9.34 -91.34 8.68 -91 8 C-90.01 8 -89.02 8 -88 8 C-87.67 7.34 -87.34 6.68 -87 6 C-78.47332563 0.95704102 -69.66598626 -2.10913554 -60 -4 C-58.85789062 -4.24878906 -57.71578125 -4.49757812 -56.5390625 -4.75390625 C-37.86341282 -8.61204945 -17.67201681 -8.02387528 0 0 Z " fill="#F2B54D" transform="translate(270,158)"/>
<path d="M0 0 C1.00933594 0.13728516 1.00933594 0.13728516 2.0390625 0.27734375 C5.28500785 0.73100934 8.46809728 1.23459154 11.625 2.125 C11.625 2.785 11.625 3.445 11.625 4.125 C12.388125 4.269375 13.15125 4.41375 13.9375 4.5625 C16.625 5.125 16.625 5.125 19.625 6.125 C19.625 6.785 19.625 7.445 19.625 8.125 C20.945 8.125 22.265 8.125 23.625 8.125 C25.875 10 25.875 10 27.625 12.125 C27.625 12.785 27.625 13.445 27.625 14.125 C28.285 14.125 28.945 14.125 29.625 14.125 C29.625 14.785 29.625 15.445 29.625 16.125 C30.285 16.125 30.945 16.125 31.625 16.125 C31.625 16.785 31.625 17.445 31.625 18.125 C32.285 18.125 32.945 18.125 33.625 18.125 C33.625 18.785 33.625 19.445 33.625 20.125 C34.285 20.125 34.945 20.125 35.625 20.125 C35.625 21.445 35.625 22.765 35.625 24.125 C36.285 24.125 36.945 24.125 37.625 24.125 C44.23596045 35.98435653 46.79346528 47.94824486 42.99462891 61.34863281 C38.6792972 74.38099028 32.14178615 86.29814216 24.88671875 97.90625 C23.54647648 100.14071581 23.54647648 100.14071581 22.5859375 102.76953125 C21.43570844 105.58899516 19.82967867 107.06255867 17.625 109.125 C17.295 109.785 16.965 110.445 16.625 111.125 C15.965 111.125 15.305 111.125 14.625 111.125 C13.54974806 113.77728812 12.53043849 116.40868454 11.625 119.125 C10.6659375 119.805625 10.6659375 119.805625 9.6875 120.5 C7.20224909 122.45807647 6.58742552 124.15752131 5.625 127.125 C4.635 127.125 3.645 127.125 2.625 127.125 C2.398125 127.681875 2.17125 128.23875 1.9375 128.8125 C-0.33100449 132.80938886 -2.99399946 135.66466649 -7.375 137.125 C-8.75062854 135.83534824 -10.08266393 134.49810707 -11.375 133.125 C-11.375 132.465 -11.375 131.805 -11.375 131.125 C-12.035 131.125 -12.695 131.125 -13.375 131.125 C-14.035 129.475 -14.695 127.825 -15.375 126.125 C-16.035 126.125 -16.695 126.125 -17.375 126.125 C-17.375 125.135 -17.375 124.145 -17.375 123.125 C-18.035 123.125 -18.695 123.125 -19.375 123.125 C-20.8125 121.19140625 -20.8125 121.19140625 -22.375 118.6875 C-24.3279916 115.31493349 -24.3279916 115.31493349 -27.375 113.125 C-28.375 110.625 -28.375 110.625 -29.375 108.125 C-30.035 107.795 -30.695 107.465 -31.375 107.125 C-31.375 105.805 -31.375 104.485 -31.375 103.125 C-32.035 103.125 -32.695 103.125 -33.375 103.125 C-33.66375 102.320625 -33.9525 101.51625 -34.25 100.6875 C-35.10762568 97.9923532 -35.10762568 97.9923532 -37.375 97.125 C-37.375 95.805 -37.375 94.485 -37.375 93.125 C-38.035 93.125 -38.695 93.125 -39.375 93.125 C-39.66375 92.320625 -39.9525 91.51625 -40.25 90.6875 C-41.10762568 87.9923532 -41.10762568 87.9923532 -43.375 87.125 C-43.375 86.135 -43.375 85.145 -43.375 84.125 C-44.035 83.795 -44.695 83.465 -45.375 83.125 C-45.375 82.135 -45.375 81.145 -45.375 80.125 C-46.035 79.795 -46.695 79.465 -47.375 79.125 C-47.375 78.135 -47.375 77.145 -47.375 76.125 C-48.035 75.795 -48.695 75.465 -49.375 75.125 C-49.375 74.135 -49.375 73.145 -49.375 72.125 C-50.035 71.465 -50.695 70.805 -51.375 70.125 C-51.375 69.465 -51.375 68.805 -51.375 68.125 C-51.684375 67.42375 -51.99375 66.7225 -52.3125 66 C-54.60580653 59.79458234 -54.55660947 53.05026767 -54.5625 46.5 C-54.57474609 45.77554688 -54.58699219 45.05109375 -54.59960938 44.3046875 C-54.61175438 39.83532625 -54.00295901 36.34771359 -52.375 32.125 C-52.21 31.238125 -52.045 30.35125 -51.875 29.4375 C-51.375 27.125 -51.375 27.125 -49.375 24.125 C-48.715 24.125 -48.055 24.125 -47.375 24.125 C-47.25125 23.50625 -47.1275 22.8875 -47 22.25 C-46.375 20.125 -46.375 20.125 -44.375 18.125 C-44.045 17.465 -43.715 16.805 -43.375 16.125 C-42.715 16.125 -42.055 16.125 -41.375 16.125 C-41.375 15.465 -41.375 14.805 -41.375 14.125 C-40.715 14.125 -40.055 14.125 -39.375 14.125 C-39.375 13.465 -39.375 12.805 -39.375 12.125 C-38.715 12.125 -38.055 12.125 -37.375 12.125 C-37.045 11.465 -36.715 10.805 -36.375 10.125 C-35.385 9.795 -34.395 9.465 -33.375 9.125 C-33.045 8.465 -32.715 7.805 -32.375 7.125 C-25.66407811 2.89420141 -19.49685036 0.47218675 -11.5546875 0.23046875 C-1.69204152 -0.24675606 -1.69204152 -0.24675606 0 0 Z M-18.375 36.125 C-18.375 36.785 -18.375 37.445 -18.375 38.125 C-17.715 38.125 -17.055 38.125 -16.375 38.125 C-16.375 37.465 -16.375 36.805 -16.375 36.125 C-17.035 36.125 -17.695 36.125 -18.375 36.125 Z M3.625 34.125 C3.295 34.785 2.965 35.445 2.625 36.125 C1.965 35.795 1.305 35.465 0.625 35.125 C-1.18541793 35.02867103 -2.99952753 34.99518467 -4.8125 35 C-5.78058594 34.99742187 -6.74867188 34.99484375 -7.74609375 34.9921875 C-10.48517829 35.01286027 -10.48517829 35.01286027 -13.375 36.125 C-13.705 36.785 -14.035 37.445 -14.375 38.125 C-15.695 38.125 -17.015 38.125 -18.375 38.125 C-20.57567421 39.05783296 -20.57567421 39.05783296 -22.375 40.125 C-22.5238256 44.79986793 -22.5238256 44.79986793 -21.75 49.375 C-21.564375 50.24125 -21.564375 50.24125 -21.375 51.125 C-22.035 52.115 -22.695 53.105 -23.375 54.125 C-22.31763343 57.77772086 -20.521334 60.99492958 -18.375 64.125 C-17.715 64.125 -17.055 64.125 -16.375 64.125 C-16.045 64.785 -15.715 65.445 -15.375 66.125 C-14.385 66.125 -13.395 66.125 -12.375 66.125 C-12.045 66.785 -11.715 67.445 -11.375 68.125 C-4.8914611 68.48372039 0.87697248 68.4457862 6.625 65.125 C11.03161931 60.83747851 13.35820202 55.65958084 14 49.5625 C13.59075751 45.81111048 12.52006619 43.36240475 10.625 40.125 C9.965 40.785 9.305 41.445 8.625 42.125 C7.965 41.135 7.305 40.145 6.625 39.125 C5.965 39.125 5.305 39.125 4.625 39.125 C4.955 37.805 5.285 36.485 5.625 35.125 C4.965 34.795 4.305 34.465 3.625 34.125 Z M7.625 38.125 C8.285 38.785 8.945 39.445 9.625 40.125 C9.625 39.465 9.625 38.805 9.625 38.125 C8.965 38.125 8.305 38.125 7.625 38.125 Z " fill="#EB9540" transform="translate(291.375,205.875)"/>
<path d="M0 0 C1.5149707 -0.00193359 1.5149707 -0.00193359 3.06054688 -0.00390625 C4.11435547 -0.00003906 5.16816406 0.00382812 6.25390625 0.0078125 C7.30384766 0.00394531 8.35378906 0.00007813 9.43554688 -0.00390625 C10.95245117 -0.00197266 10.95245117 -0.00197266 12.5 0 C13.42353271 0.00112793 14.34706543 0.00225586 15.29858398 0.00341797 C17.64163615 0.12383081 19.59713669 0.38284604 21.81640625 1.1328125 C23.81609998 3.53010615 24.97929621 6.13405123 25.81640625 9.1328125 C25.56529372 11.81469435 24.86803438 13.608905 23.81640625 16.1328125 C22.49640625 15.4728125 21.17640625 14.8128125 19.81640625 14.1328125 C19.81640625 13.4728125 19.81640625 12.8128125 19.81640625 12.1328125 C12.88640625 12.1328125 5.95640625 12.1328125 -1.18359375 12.1328125 C-0.85359375 12.4628125 -0.52359375 12.7928125 -0.18359375 13.1328125 C0.12578125 13.9371875 0.43515625 14.7415625 0.75390625 15.5703125 C1.6700372 18.24134465 1.6700372 18.24134465 3.81640625 20.1328125 C5.36166958 22.79409934 5.81640625 23.98197245 5.81640625 27.1328125 C6.80640625 27.4628125 7.79640625 27.7928125 8.81640625 28.1328125 C9.94140625 31.0078125 9.94140625 31.0078125 10.81640625 34.1328125 C11.14640625 35.1228125 11.47640625 36.1128125 11.81640625 37.1328125 C12.47640625 37.4628125 13.13640625 37.7928125 13.81640625 38.1328125 C13.81640625 39.1228125 13.81640625 40.1128125 13.81640625 41.1328125 C15.30140625 41.6278125 15.30140625 41.6278125 16.81640625 42.1328125 C17.8671875 43.875 17.8671875 43.875 18.81640625 46.1328125 C19.18121094 46.96039063 19.54601562 47.78796875 19.921875 48.640625 C20.45748047 49.93613281 20.45748047 49.93613281 21.00390625 51.2578125 C21.36871094 52.12664062 21.73351562 52.99546875 22.109375 53.890625 C22.81640625 56.1328125 22.81640625 56.1328125 21.81640625 58.1328125 C19.48924625 58.50682036 17.15522763 58.84045983 14.81640625 59.1328125 C14.48640625 59.4628125 14.15640625 59.7928125 13.81640625 60.1328125 C11.06832015 60.6753531 8.32826766 61.17174142 5.56640625 61.6328125 C4.04028164 61.89274266 2.51423782 62.15314765 0.98828125 62.4140625 C0.26833984 62.53652344 -0.45160156 62.65898437 -1.19335938 62.78515625 C-3.53211993 63.19369342 -5.85921268 63.64934124 -8.18359375 64.1328125 C-8.51359375 63.4728125 -8.84359375 62.8128125 -9.18359375 62.1328125 C-9.84359375 62.1328125 -10.50359375 62.1328125 -11.18359375 62.1328125 C-11.25314572 54.77008198 -11.3064312 47.40742245 -11.33903027 40.04442978 C-11.35467733 36.62536758 -11.37589745 33.20653037 -11.40991211 29.78759766 C-11.4487836 25.85582179 -11.46331096 21.9241366 -11.4765625 17.9921875 C-11.49204636 16.76602722 -11.50753021 15.53986694 -11.52348328 14.27655029 C-11.52382317 12.56522919 -11.52382317 12.56522919 -11.52416992 10.81933594 C-11.53083176 9.81561951 -11.53749359 8.81190308 -11.5443573 7.777771 C-11.12321108 4.69011352 -10.34647282 3.34875487 -8.18359375 1.1328125 C-5.17401744 0.1296204 -3.14493979 0.00384568 0 0 Z " fill="#E7A849" transform="translate(209.18359375,272.8671875)"/>
<path d="M0 0 C0 0.33 0 0.66 0 1 C-2.97 1 -5.94 1 -9 1 C-9.33 2.65 -9.66 4.3 -10 6 C-7.36 6 -4.72 6 -2 6 C-2 6.99 -2 7.98 -2 9 C-4.97 9 -7.94 9 -11 9 C-11.33 9.99 -11.66 10.98 -12 12 C-14.0625 12.6875 -14.0625 12.6875 -16 13 C-16 12.34 -16 11.68 -16 11 C-15.34 11 -14.68 11 -14 11 C-14.9977758 8.00667261 -15.7522025 7.05233685 -18 5 C-16.33403392 1.66806784 -13.00494067 1.05777862 -9.65625 -0.24609375 C-5.98607849 -1.28777478 -3.6548823 -0.95344756 0 0 Z " fill="#BA904D" transform="translate(289,233)"/>
<path d="M0 0 C0.66 0 1.32 0 2 0 C1.67 1.32 1.34 2.64 1 4 C0.01 4 -0.98 4 -2 4 C-2.226875 4.556875 -2.45375 5.11375 -2.6875 5.6875 C-4.95600449 9.68438886 -7.61899946 12.53966649 -12 14 C-12.99 12.35 -13.98 10.7 -15 9 C-11.535 8.505 -11.535 8.505 -8 8 C-7.7525 7.195625 -7.505 6.39125 -7.25 5.5625 C-6.8375 4.716875 -6.425 3.87125 -6 3 C-4 2.3125 -4 2.3125 -2 2 C-1.34 1.34 -0.68 0.68 0 0 Z " fill="#B95724" transform="translate(296,329)"/>
<path d="M0 0 C3.63 0 7.26 0 11 0 C11 0.99 11 1.98 11 3 C8.47524538 4.26237731 6.68799534 4.09856404 3.875 4.0625 C2.96492188 4.05347656 2.05484375 4.04445312 1.1171875 4.03515625 C0.41851562 4.02355469 -0.28015625 4.01195312 -1 4 C-0.67 2.68 -0.34 1.36 0 0 Z " fill="#F7D7A4" transform="translate(280,235)"/>
<path d="M0 0 C1.125 1.625 1.125 1.625 2 4 C1.125 7.25 1.125 7.25 0 10 C-1.32 9.34 -2.64 8.68 -4 8 C-4 7.34 -4 6.68 -4 6 C-5.32 5.67 -6.64 5.34 -8 5 C-7.05125 4.731875 -6.1025 4.46375 -5.125 4.1875 C-1.74732727 3.25013412 -1.74732727 3.25013412 0 0 Z " fill="#C18B31" transform="translate(233,279)"/>
<path d="M0 0 C0.33 1.32 0.66 2.64 1 4 C0.34 4 -0.32 4 -1 4 C-1.66 5.32 -2.32 6.64 -3 8 C-3.99 8 -4.98 8 -6 8 C-6 7.34 -6 6.68 -6 6 C-4.68 5.67 -3.36 5.34 -2 5 C-2 4.01 -2 3.02 -2 2 C-5.63 2 -9.26 2 -13 2 C-13 1.67 -13 1.34 -13 1 C-11.58366664 0.83052421 -10.16691467 0.66454493 -8.75 0.5 C-7.56664062 0.36078125 -7.56664062 0.36078125 -6.359375 0.21875 C-4 0 -4 0 0 0 Z " fill="#E8BC6F" transform="translate(293,233)"/>
<path d="M0 0 C0.33 0 0.66 0 1 0 C1.39063507 1.43333021 1.76198474 2.87192679 2.125 4.3125 C2.33382813 5.11300781 2.54265625 5.91351563 2.7578125 6.73828125 C3 9 3 9 1 12 C1.33 12.66 1.66 13.32 2 14 C1.01 13.67 0.02 13.34 -1 13 C-1.02696365 11.20841511 -1.04637917 9.41671527 -1.0625 7.625 C-1.07410156 6.62726563 -1.08570313 5.62953125 -1.09765625 4.6015625 C-1 2 -1 2 0 0 Z " fill="#000000" transform="translate(268,248)"/>
<path d="M0 0 C0.66 0.66 1.32 1.32 2 2 C-0.31 4.31 -2.62 6.62 -5 9 C-5.66 8.34 -6.32 7.68 -7 7 C-5.625 5.5 -5.625 5.5 -4 4 C-3.34 4 -2.68 4 -2 4 C-2 3.34 -2 2.68 -2 2 C-1.34 2 -0.68 2 0 2 C0 1.34 0 0.68 0 0 Z " fill="#A18232" transform="translate(164,177)"/>
<path d="M0 0 C0.66 0 1.32 0 2 0 C3.5625 2.8125 3.5625 2.8125 5 6 C4.67 6.99 4.34 7.98 4 9 C3.34 7.68 2.68 6.36 2 5 C1.34 5 0.68 5 0 5 C0 3.35 0 1.7 0 0 Z " fill="#060600" transform="translate(296,240)"/>
<path d="M0 0 C2.31 0 4.62 0 7 0 C7 0.99 7 1.98 7 3 C5.35 3 3.7 3 2 3 C2 2.34 2 1.68 2 1 C1.34 0.67 0.68 0.34 0 0 Z " fill="#A18C66" transform="translate(280,239)"/>
<path d="" fill="#959500" transform="translate(0,0)"/>
<path d="" fill="#000000" transform="translate(0,0)"/>
<path d="" fill="#000000" transform="translate(0,0)"/>
<path d="" fill="#808000" transform="translate(0,0)"/>
<path d="" fill="#000000" transform="translate(0,0)"/>
<path d="" fill="#808000" transform="translate(0,0)"/>
<path d="" fill="#000000" transform="translate(0,0)"/>
<path d="" fill="#000000" transform="translate(0,0)"/>
<path d="" fill="#808000" transform="translate(0,0)"/>
<path d="" fill="#000000" transform="translate(0,0)"/>
<path d="" fill="#000000" transform="translate(0,0)"/>
<path d="" fill="#000000" transform="translate(0,0)"/>
<path d="" fill="#000000" transform="translate(0,0)"/>
<path d="" fill="#000000" transform="translate(0,0)"/>
<path d="" fill="#000000" transform="translate(0,0)"/>
<path d="" fill="#000000" transform="translate(0,0)"/>
<path d="" fill="#000000" transform="translate(0,0)"/>
<path d="" fill="#000000" transform="translate(0,0)"/>
<path d="" fill="#000000" transform="translate(0,0)"/>
<path d="" fill="#000000" transform="translate(0,0)"/>
<path d="" fill="#000000" transform="translate(0,0)"/>
<path d="" fill="#000000" transform="translate(0,0)"/>
<path d="" fill="#000000" transform="translate(0,0)"/>
<path d="" fill="#AAAA00" transform="translate(0,0)"/>
<path d="" fill="#808000" transform="translate(0,0)"/>
<path d="" fill="#000000" transform="translate(0,0)"/>
<path d="" fill="#000000" transform="translate(0,0)"/>
<path d="" fill="#AAAA00" transform="translate(0,0)"/>
<path d="" fill="#000000" transform="translate(0,0)"/>
<path d="" fill="#808000" transform="translate(0,0)"/>
<path d="" fill="#000000" transform="translate(0,0)"/>
<path d="" fill="#000000" transform="translate(0,0)"/>
<path d="" fill="#000000" transform="translate(0,0)"/>
<path d="" fill="#000000" transform="translate(0,0)"/>
<path d="" fill="#000000" transform="translate(0,0)"/>
</svg>
